<?xml version="1.0" standalone="no"?>
<!DOCTYPE svg PUBLIC "-//W3C//DTD SVG 20010904//EN"
 "http://www.w3.org/TR/2001/REC-SVG-20010904/DTD/svg10.dtd">
<svg version="1.0" xmlns="http://www.w3.org/2000/svg"
 width="1900.000000pt" height="1900.000000pt" viewBox="0 0 1900.000000 1900.000000"
 preserveAspectRatio="xMidYMid meet">
<metadata>
Created by potrace 1.14, written by Peter Selinger 2001-2017
</metadata>
<g transform="translate(0.000000,1900.000000) scale(0.100000,-0.100000)"
fill="#000000" stroke="none">
<path d="M9259 18496 c-2 -2 -60 -7 -129 -10 -69 -3 -136 -8 -150 -10 -14 -2
-61 -7 -105 -11 -44 -3 -89 -8 -100 -10 -11 -2 -47 -6 -80 -10 -33 -3 -85 -9
-115 -15 -30 -5 -71 -12 -90 -15 -130 -21 -308 -57 -425 -86 -101 -25 -314
-87 -340 -98 -11 -5 -49 -19 -85 -31 -36 -12 -74 -26 -85 -30 -11 -5 -65 -28
-120 -51 -223 -93 -493 -242 -675 -372 -47 -34 -90 -66 -96 -72 -6 -5 -33 -28
-60 -49 -142 -113 -327 -327 -427 -492 -76 -125 -170 -339 -191 -435 -3 -13
-15 -62 -25 -109 -19 -82 -23 -101 -38 -220 -9 -73 -9 -376 1 -470 54 -538
262 -981 689 -1475 255 -293 802 -835 1133 -1122 25 -21 146 -129 217 -193 27
-25 59 -53 71 -63 60 -53 152 -134 166 -147 9 -8 36 -33 60 -54 38 -33 103
-92 245 -221 61 -55 239 -220 324 -300 145 -136 654 -646 758 -760 135 -148
137 -150 121 -152 -7 -2 -78 -14 -158 -28 -80 -14 -156 -27 -170 -30 -14 -3
-50 -10 -80 -16 -30 -5 -66 -12 -80 -15 -14 -3 -50 -11 -80 -19 -30 -8 -66
-16 -80 -19 -47 -8 -255 -65 -390 -106 -457 -138 -885 -321 -1315 -560 -306
-171 -759 -489 -1001 -705 -6 -5 -40 -35 -75 -65 -204 -178 -479 -457 -619
-629 -19 -24 -45 -55 -58 -69 -98 -112 -330 -443 -430 -612 -88 -149 -111
-192 -190 -350 -195 -390 -372 -907 -437 -1280 -3 -19 -10 -53 -15 -75 -24
-106 -62 -376 -76 -530 -3 -38 -8 -86 -10 -105 -23 -220 -23 -808 1 -1095 2
-27 6 -84 10 -125 3 -41 8 -88 10 -105 3 -16 7 -52 10 -80 12 -98 15 -120 20
-145 2 -14 7 -45 10 -70 10 -71 32 -196 55 -306 11 -55 22 -110 24 -121 15
-75 95 -359 140 -496 97 -294 247 -638 371 -852 153 -266 262 -426 440 -650
244 -307 584 -634 900 -865 39 -28 77 -56 85 -63 49 -41 364 -237 380 -237 4
0 10 -4 12 -8 5 -14 405 -207 533 -257 192 -76 435 -151 648 -202 95 -22 338
-65 442 -78 28 -3 64 -8 80 -10 245 -34 906 -40 1096 -11 13 3 51 7 84 10 33
3 69 8 80 10 11 2 45 7 75 10 30 4 78 11 105 16 28 5 64 11 80 14 17 3 40 7
51 10 12 2 37 7 56 10 64 10 351 86 483 127 342 108 814 326 1090 504 171 110
242 158 338 228 59 43 116 84 125 92 9 8 55 44 102 82 47 37 101 81 120 98
338 296 652 621 885 915 33 41 62 77 65 80 7 7 85 109 132 174 21 28 94 134
162 236 387 576 660 1193 821 1851 24 101 47 202 51 224 3 22 7 42 9 45 2 3 6
26 10 50 3 25 8 52 10 60 7 25 38 233 49 330 21 182 24 225 33 390 15 286 5
746 -21 960 -3 25 -8 72 -11 105 -10 89 -12 107 -19 145 -3 19 -8 51 -11 70
-2 19 -11 71 -19 115 -8 44 -17 96 -21 115 -47 267 -162 663 -284 982 -82 215
-130 321 -253 568 -94 189 -181 349 -238 440 -5 8 -22 38 -39 66 -69 120 -250
386 -357 529 -33 43 -68 90 -79 104 -23 32 -147 184 -155 191 -3 3 -32 36 -65
75 -182 211 -436 462 -705 695 -41 36 -77 67 -80 70 -3 3 -59 50 -125 106
-259 217 -654 526 -1020 799 -88 65 -191 142 -230 171 -186 139 -713 513
-1085 771 -129 89 -256 177 -281 195 -62 44 -350 243 -493 340 -10 7 -31 22
-45 33 -14 11 -39 29 -56 41 -45 31 -154 107 -201 140 -114 80 -579 417 -609
442 -5 4 -64 48 -130 97 -66 50 -125 94 -132 100 -6 5 -26 21 -44 35 -52 39
-333 263 -339 269 -3 3 -45 40 -95 81 -340 282 -546 529 -680 812 -99 209
-139 391 -139 623 0 161 15 259 59 390 167 499 713 888 1430 1020 94 18 102
19 205 30 36 4 74 9 85 12 37 8 469 10 555 3 99 -9 178 -20 250 -35 14 -3 39
-8 55 -11 180 -32 450 -136 613 -235 35 -21 66 -39 68 -39 2 0 32 -19 66 -43
215 -148 309 -220 492 -382 237 -208 507 -478 776 -775 150 -166 396 -410 500
-496 131 -110 217 -171 365 -261 96 -58 263 -123 376 -147 70 -15 259 -16 329
-3 298 56 576 274 721 567 22 45 42 89 45 98 2 9 15 59 29 111 36 136 47 288
31 455 -41 457 -309 853 -791 1167 -525 343 -1443 644 -2235 734 -25 3 -61 7
-80 10 -19 3 -57 7 -85 10 -27 2 -70 7 -95 10 -25 3 -81 8 -125 11 -44 3 -107
7 -140 10 -71 6 -901 15 -906 10z m1075 -7719 c198 -206 388 -421 541 -612 21
-28 42 -52 45 -55 3 -3 52 -67 110 -144 345 -460 652 -973 855 -1431 14 -33
32 -73 40 -90 85 -187 228 -584 298 -825 18 -62 83 -311 91 -350 31 -139 66
-314 71 -350 4 -24 8 -47 10 -50 2 -3 6 -30 10 -60 4 -30 8 -57 10 -60 2 -3 6
-34 10 -69 4 -34 8 -72 11 -84 7 -37 15 -108 29 -257 3 -36 8 -83 10 -105 26
-259 26 -1058 0 -1285 -2 -19 -6 -71 -10 -115 -3 -44 -8 -98 -11 -120 -2 -22
-6 -62 -9 -90 -3 -27 -8 -66 -10 -85 -3 -19 -7 -55 -10 -80 -15 -116 -52 -328
-81 -460 -14 -63 -27 -126 -30 -140 -13 -66 -78 -299 -123 -442 -26 -81 -110
-305 -140 -371 -11 -26 -30 -68 -42 -94 -138 -316 -366 -675 -590 -928 -374
-424 -844 -701 -1329 -785 -36 -6 -76 -13 -90 -16 -142 -24 -532 -25 -656 0
-32 6 -96 18 -120 21 -46 6 -225 59 -314 92 -132 49 -333 151 -454 231 -55 36
-103 69 -106 72 -3 3 -21 17 -40 30 -19 13 -40 29 -46 35 -6 5 -30 26 -54 45
-146 117 -340 315 -486 495 -246 302 -397 556 -579 970 -21 47 -61 152 -90
235 -14 41 -30 84 -35 95 -4 11 -18 54 -30 95 -13 41 -28 94 -36 116 -14 46
-93 363 -100 404 -3 14 -12 59 -20 100 -18 89 -40 217 -49 280 -3 25 -8 56
-10 70 -9 49 -12 72 -30 230 -2 19 -6 53 -9 75 -5 44 -17 179 -21 235 -9 144
-18 284 -21 335 -4 74 -4 748 0 830 4 76 17 289 21 335 12 151 17 197 20 210
2 8 6 47 9 85 4 39 8 81 11 95 2 14 9 61 15 105 65 461 183 914 338 1300 35
87 56 135 140 315 21 46 137 255 166 300 234 363 421 586 686 821 383 338 866
604 1401 773 80 26 154 48 165 50 11 2 45 11 75 20 55 17 276 69 339 80 19 3
46 8 60 11 14 3 43 8 65 11 22 4 42 8 44 10 12 11 29 -1 85 -59z"/>
</g>
</svg>
